<svg xmlns="http://www.w3.org/2000/svg" xmlns:xlink="http://www.w3.org/1999/xlink" preserveAspectRatio="xMidYMid" width="926" height="128" viewBox="0 0 926 128">
  <defs>
    <style>

      .cls-2 {
        fill: #343334;
      }
    </style>
  </defs>
  <path d="M924.388,21.564 C923.529,23.656 921.233,25.484 917.500,27.052 C913.841,27.800 910.873,27.576 908.596,26.380 C906.318,25.187 904.993,23.748 904.620,22.068 C904.246,20.388 904.769,18.652 906.188,16.860 C907.830,14.620 910.294,13.164 913.580,12.492 C915.073,12.344 916.156,12.268 916.828,12.268 C917.500,12.268 918.321,12.419 919.292,12.716 C921.756,12.940 923.361,14.024 924.108,15.964 C925.153,17.608 925.246,19.475 924.388,21.564 ZM912.908,39.148 C915.969,40.344 917.350,42.284 917.052,44.972 C916.230,47.587 915.204,50.779 913.972,54.548 C912.740,58.320 911.564,62.184 910.444,66.140 C907.457,76.296 905.740,83.464 905.292,87.644 C904.172,94.364 902.305,97.985 899.692,98.508 C898.945,98.657 898.236,98.769 897.564,98.844 C895.921,98.918 894.876,99.366 894.428,100.188 C893.980,101.009 893.233,101.625 892.188,102.036 C891.142,102.446 890.004,102.633 888.772,102.596 C887.540,102.558 886.289,102.260 885.020,101.700 C883.750,101.140 882.668,100.337 881.772,99.292 C879.683,96.753 879.272,93.356 880.540,89.100 C881.734,80.963 884.758,70.620 889.612,58.076 C891.926,51.880 894.166,47.139 896.332,43.852 C897.302,41.388 899.617,39.708 903.276,38.812 C906.710,37.916 909.921,38.028 912.908,39.148 ZM888.494,42.844 C887.598,43.891 886.439,44.451 885.021,44.524 C878.526,46.316 873.895,47.288 871.134,47.436 C871.134,47.436 870.462,48.220 870.462,48.220 C870.462,48.220 870.462,48.332 870.462,48.332 C869.714,50.124 868.911,52.384 868.054,55.108 C867.194,57.835 866.261,60.784 865.254,63.956 C864.245,67.131 863.218,70.416 862.174,73.812 C861.127,77.211 860.046,80.476 858.926,83.612 C855.342,94.140 852.727,99.852 851.086,100.748 C850.487,101.046 849.871,101.252 849.238,101.364 C848.602,101.476 848.247,101.569 848.174,101.644 C845.559,101.494 843.394,100.972 841.677,100.076 C839.959,99.180 838.802,98.321 838.206,97.500 C837.607,96.678 837.458,95.745 837.758,94.700 C839.175,81.708 842.014,67.484 846.270,52.028 C844.775,52.028 843.730,52.179 843.134,52.476 C842.014,53.075 840.670,53.411 839.102,53.484 C839.102,53.484 838.990,53.484 838.990,53.484 C837.794,53.411 836.711,52.851 835.742,51.804 C834.770,50.760 834.174,49.564 833.950,48.220 C833.726,46.876 833.950,45.496 834.622,44.076 C835.294,42.659 836.638,41.539 838.654,40.716 C841.042,40.044 842.797,39.484 843.917,39.036 C846.082,38.140 847.894,37.507 849.349,37.132 C850.806,36.760 851.626,36.516 851.813,36.404 C851.999,36.292 852.130,36.200 852.206,36.124 C852.430,35.976 852.990,35.900 853.885,35.900 C854.333,33.736 854.781,31.532 855.229,29.292 C855.677,27.052 856.238,24.776 856.910,22.460 C858.402,17.084 860.455,12.456 863.070,8.572 C863.070,8.572 863.182,8.124 863.182,8.124 C863.182,8.124 864.190,7.116 864.190,7.116 C865.010,5.176 865.906,4.019 866.878,3.644 C867.399,3.496 868.071,3.308 868.894,3.084 C869.714,2.860 870.797,2.300 872.141,1.404 C872.663,0.360 873.746,-0.108 875.390,0.004 C877.031,0.116 878.655,0.640 880.261,1.572 C881.866,2.507 883.174,3.795 884.182,5.436 C885.190,7.080 885.431,8.779 884.910,10.532 C884.386,12.288 883.958,13.595 883.622,14.452 C883.286,15.312 882.950,16.115 882.614,16.860 C882.278,17.608 881.866,18.448 881.382,19.380 C880.895,20.315 880.279,21.564 879.534,23.132 C879.534,23.132 875.838,30.860 875.838,30.860 C875.463,31.832 875.146,32.392 874.885,32.540 C874.623,32.691 874.382,32.952 874.157,33.324 C874.830,33.176 875.390,33.064 875.838,32.988 C876.286,32.915 876.734,32.840 877.182,32.764 C878.226,32.616 879.422,32.467 880.766,32.316 C881.586,32.467 882.295,32.540 882.894,32.540 C882.894,32.540 884.462,32.540 884.462,32.540 C885.358,32.540 886.439,32.784 887.709,33.268 C888.978,33.755 889.799,34.595 890.174,35.788 C890.546,36.984 890.583,38.196 890.286,39.428 C889.986,40.660 889.390,41.800 888.494,42.844 ZM827.959,73.476 C827.324,75.979 827.080,78.275 827.231,80.364 C827.231,84.323 827.716,87.756 828.687,90.668 C828.687,93.057 828.127,94.756 827.007,95.764 C825.887,96.772 824.487,97.294 822.807,97.332 C821.127,97.369 819.352,97.033 817.487,96.324 C815.620,95.614 814.032,94.737 812.727,93.692 C811.420,92.646 810.580,91.808 810.207,91.172 C809.832,90.539 809.236,89.587 808.415,88.316 C807.144,82.419 806.548,78.572 806.623,76.780 C806.696,74.988 806.847,73.459 807.071,72.188 C803.336,74.131 800.760,75.811 799.343,77.228 C796.728,79.843 794.527,83.203 792.735,87.308 C792.136,90.595 791.652,92.331 791.279,92.516 C790.904,92.702 790.420,92.833 789.823,92.908 C789.224,92.982 788.591,93.244 787.919,93.692 C787.247,94.140 786.612,94.513 786.015,94.812 C785.416,95.110 784.820,95.409 784.223,95.708 C782.804,96.529 781.871,96.940 781.423,96.940 C777.167,98.284 773.096,97.686 769.215,95.148 C767.572,94.028 766.303,92.590 765.407,90.836 C764.511,89.083 764.287,87.196 764.735,85.180 C767.944,71.368 772.351,57.292 777.951,42.956 C781.384,34.220 784.671,27.315 787.807,22.236 C788.552,21.043 789.300,19.772 790.047,18.428 C791.615,15.740 792.696,13.912 793.295,12.940 C792.548,11.000 792.567,9.300 793.351,7.844 C794.135,6.388 795.328,5.232 796.935,4.372 C798.540,3.515 800.388,2.936 802.479,2.636 C804.568,2.339 806.548,2.300 808.415,2.524 C812.895,3.196 815.284,4.952 815.583,7.788 C815.135,9.132 814.519,10.739 813.735,12.604 C812.951,14.472 812.167,16.356 811.383,18.260 C810.599,20.164 809.852,21.939 809.143,23.580 C808.432,25.224 807.911,26.436 807.575,27.220 C807.239,28.004 806.752,29.348 806.119,31.252 C805.484,33.156 804.812,35.211 804.103,37.412 C803.392,39.616 802.740,41.651 802.143,43.516 C802.143,43.516 800.799,47.436 800.799,47.436 C800.500,48.483 800.015,50.068 799.343,52.196 C798.671,54.324 797.960,56.956 797.215,60.092 C798.184,59.347 798.988,58.468 799.623,57.460 C800.256,56.452 801.191,55.315 802.423,54.044 C803.655,52.776 805.260,51.524 807.239,50.292 C809.216,49.060 811.327,48.259 813.567,47.884 C818.420,47.064 822.824,48.632 826.783,52.588 C829.768,55.576 830.703,60.056 829.583,66.028 C829.135,68.492 828.592,70.976 827.959,73.476 ZM761.263,89.884 C761.412,92.497 759.807,94.289 756.447,95.260 C753.535,96.156 750.623,96.118 747.711,95.148 C744.649,94.102 743.380,92.497 743.903,90.332 C743.305,91.452 742.708,92.256 742.111,92.740 C741.513,93.225 740.337,93.897 738.583,94.756 C736.828,95.614 734.345,96.324 731.135,96.884 C727.924,97.444 724.713,97.593 721.503,97.332 C718.292,97.070 715.361,96.286 712.711,94.980 C710.060,93.673 708.287,91.640 707.391,88.876 C705.675,83.500 705.899,76.668 708.063,68.380 C709.556,62.931 712.244,58.115 716.127,53.932 C720.607,49.155 725.684,45.196 731.359,42.060 C735.615,39.747 739.721,38.364 743.679,37.916 C745.023,37.768 746.199,37.804 747.207,38.028 C748.215,38.252 749.297,38.476 750.455,38.700 C751.612,38.924 752.713,39.260 753.759,39.708 C756.447,40.828 757.791,42.360 757.791,44.300 C757.791,44.300 758.239,44.412 758.239,44.412 C758.388,44.412 758.463,44.451 758.463,44.524 C760.404,43.779 762.009,44.339 763.279,46.204 C764.100,47.475 764.735,49.416 765.183,52.028 C765.332,55.612 764.959,60.579 764.063,66.924 C762.345,79.768 761.412,87.420 761.263,89.884 ZM725.871,73.980 C722.361,77.939 722.585,80.664 726.543,82.156 C729.977,83.052 732.479,82.492 734.047,80.476 C734.719,79.580 735.316,78.460 735.839,77.116 C736.361,75.772 736.996,74.392 737.743,72.972 C737.519,73.347 737.295,73.683 737.071,73.980 C737.593,72.936 738.023,71.628 738.359,70.060 C738.695,68.492 739.161,66.776 739.759,64.908 C733.711,67.372 729.081,70.396 725.871,73.980 ZM696.976,82.604 C696.528,84.620 696.061,86.412 695.576,87.980 C695.090,89.548 694.549,90.931 693.952,92.124 C693.354,93.318 692.458,94.438 691.264,95.484 C690.069,96.529 688.650,97.518 687.008,98.452 C685.365,99.385 683.797,100.038 682.304,100.412 C678.869,101.158 677.077,100.150 676.928,97.388 C676.704,96.641 676.237,96.212 675.528,96.100 C674.818,95.988 674.165,95.782 673.568,95.484 C672.000,94.812 671.552,92.982 672.224,89.996 C673.420,85.891 674.725,80.907 676.144,75.044 C677.562,69.184 679.392,62.744 681.632,55.724 C686.933,38.700 693.504,23.356 701.344,9.692 C701.866,9.020 702.464,8.144 703.136,7.060 C703.808,5.979 704.666,4.988 705.712,4.092 C708.325,1.704 711.536,1.144 715.344,2.412 C715.269,3.384 715.493,4.260 716.016,5.044 C716.538,5.828 717.136,6.632 717.808,7.452 C719.525,9.395 720.309,11.148 720.160,12.716 C712.245,31.459 705.114,52.403 698.768,75.548 C698.021,78.236 697.424,80.588 696.976,82.604 ZM675.473,47.996 C674.950,48.968 674.558,49.620 674.297,49.956 C674.035,50.292 673.494,50.796 672.673,51.468 C667.595,56.920 661.771,67.036 655.201,81.820 C653.558,85.480 652.065,88.764 650.721,91.676 C652.737,92.945 654.267,94.588 655.313,96.604 C656.358,98.620 656.358,100.822 655.313,103.212 C649.115,108.140 645.643,112.769 644.897,117.100 C644.523,119.788 644.057,121.692 643.497,122.812 C642.937,123.932 642.059,125.014 640.865,126.060 C636.833,129.046 632.091,128.300 626.641,123.820 C622.758,119.937 622.571,115.084 626.081,109.260 C626.977,107.692 627.835,106.049 628.657,104.332 C629.851,101.793 631.755,98.022 634.369,93.020 C627.947,96.753 622.049,96.678 616.673,92.796 C612.865,89.884 611.521,83.276 612.641,72.972 C613.387,66.104 613.779,61.139 613.817,58.076 C613.854,55.016 613.611,52.515 613.089,50.572 C612.566,48.632 612.585,47.008 613.145,45.700 C613.705,44.395 614.601,43.480 615.833,42.956 C617.065,42.435 618.521,42.267 620.201,42.452 C621.881,42.640 623.542,43.144 625.185,43.964 C629.142,45.756 631.905,48.296 633.473,51.580 C633.846,53.224 633.715,55.259 633.081,57.684 C632.446,60.112 631.718,62.612 630.897,65.188 C630.075,67.764 629.291,70.267 628.545,72.692 C627.798,75.120 627.499,77.155 627.649,78.796 C629.590,77.603 631.289,75.811 632.745,73.420 C634.201,71.032 635.545,68.475 636.777,65.748 C638.009,63.024 639.166,60.316 640.249,57.628 C641.331,54.940 642.377,52.812 643.385,51.244 C644.393,49.676 645.195,48.427 645.793,47.492 C646.390,46.560 646.987,45.720 647.585,44.972 C648.555,43.704 649.825,42.472 651.393,41.276 C651.841,40.904 653.203,40.960 655.481,41.444 C657.758,41.931 659.438,42.267 660.521,42.452 C661.603,42.640 662.331,42.584 662.705,42.284 C662.705,42.284 664.273,41.164 664.273,41.164 C666.363,40.120 668.827,40.156 671.665,41.276 C674.427,42.472 675.883,44.300 676.033,46.764 C675.958,46.840 675.921,46.988 675.921,47.212 C675.921,47.212 676.257,47.324 676.257,47.324 C676.257,47.324 675.473,47.996 675.473,47.996 ZM596.961,67.932 C596.961,67.932 587.218,74.876 587.218,74.876 C586.694,75.699 586.322,76.483 586.098,77.228 C586.098,77.228 586.098,77.340 586.098,77.340 C586.246,77.715 587.198,78.236 588.953,78.908 C590.707,79.580 592.219,80.179 593.490,80.700 C596.475,82.044 599.126,83.875 601.442,86.188 C602.187,87.011 602.673,88.224 602.897,89.828 C603.121,91.435 602.878,92.908 602.169,94.252 C601.459,95.596 600.209,96.566 598.417,97.164 C596.625,97.761 594.123,97.500 590.913,96.380 C586.209,94.289 580.646,89.624 574.225,82.380 C573.478,84.995 572.750,87.552 572.042,90.052 C571.331,92.553 570.566,95.110 569.745,97.724 C568.625,100.262 566.011,101.457 561.906,101.308 C560.262,101.308 558.787,100.972 557.481,100.300 C556.176,99.628 555.409,98.732 555.185,97.612 C554.589,95.969 554.289,94.756 554.289,93.972 C554.289,93.188 554.477,92.275 554.849,91.228 C556.566,86.899 557.650,83.444 558.098,80.868 C558.546,78.292 558.843,76.780 558.994,76.332 C556.902,74.988 555.672,72.860 555.297,69.948 C554.849,67.112 555.521,64.572 557.313,62.332 C559.702,61.436 561.419,60.764 562.465,60.316 C562.913,57.480 563.659,54.419 564.705,51.132 C566.571,45.235 568.010,40.120 569.017,35.788 C570.026,31.459 571.481,26.548 573.385,21.060 C575.289,15.572 576.987,10.028 578.481,4.428 C580.123,2.412 582.102,1.292 584.417,1.068 C586.731,0.844 588.971,1.200 591.137,2.132 C593.302,3.067 595.150,4.484 596.682,6.388 C598.211,8.292 599.051,10.403 599.202,12.716 C599.202,12.716 598.193,15.964 598.193,15.964 C599.014,16.936 599.742,17.720 600.377,18.316 C601.011,18.915 601.366,19.848 601.442,21.116 C601.890,22.163 600.022,26.307 595.841,33.548 C594.123,36.536 592.313,39.652 590.409,42.900 C588.505,46.148 586.955,49.043 585.761,51.580 C586.657,51.356 587.553,51.171 588.449,51.020 C589.345,50.872 590.241,50.684 591.137,50.460 C596.662,49.043 600.395,48.315 602.338,48.276 C604.278,48.240 605.883,48.444 607.153,48.892 C610.587,50.236 612.379,52.328 612.530,55.164 C611.483,57.628 607.563,61.064 600.770,65.468 C599.202,66.440 597.931,67.260 596.961,67.932 ZM544.882,53.036 C538.683,53.932 535.698,54.755 535.922,55.500 C535.922,55.651 535.659,55.836 535.138,56.060 C540.887,60.019 544.882,63.900 547.122,67.708 C550.183,72.936 550.631,78.760 548.466,85.180 C548.839,87.272 546.971,89.884 542.866,93.020 C541.895,93.766 541.035,94.438 540.290,95.036 C537.378,97.425 533.923,99.236 529.930,100.468 C525.935,101.700 521.922,102.353 517.890,102.428 C513.858,102.502 510.087,102.017 506.578,100.972 C503.067,99.926 500.306,98.284 498.290,96.044 C495.901,93.505 495.080,90.968 495.826,88.428 C496.200,87.384 496.853,86.563 497.786,85.964 C498.720,85.368 499.858,85.219 501.202,85.516 C502.098,85.592 502.751,85.348 503.162,84.788 C503.571,84.228 503.927,83.595 504.226,82.884 C504.523,82.176 504.859,81.504 505.234,80.868 C505.607,80.235 506.203,79.916 507.026,79.916 C520.167,80.291 526.999,79.132 527.522,76.444 C526.626,75.624 525.523,74.915 524.218,74.316 C522.911,73.720 521.586,73.123 520.242,72.524 C516.955,71.032 514.754,69.388 513.634,67.596 C512.215,66.851 511.131,65.059 510.386,62.220 C510.011,60.952 509.826,59.644 509.826,58.300 C509.826,56.956 510.050,55.724 510.498,54.604 C510.274,51.692 512.066,48.483 515.874,44.972 C516.919,44.003 518.226,42.956 519.794,41.836 C521.362,40.716 523.714,39.635 526.850,38.588 C529.986,37.544 533.103,36.779 536.202,36.292 C539.299,35.808 542.099,35.640 544.602,35.788 C547.103,35.939 548.895,36.536 549.978,37.580 C551.059,38.627 551.919,39.932 552.554,41.500 C553.187,43.068 553.394,44.600 553.170,46.092 C552.571,49.452 549.810,51.768 544.882,53.036 ZM501.091,50.572 C499.523,52.216 497.413,53.336 494.763,53.932 C492.112,54.531 489.909,55.892 488.155,58.020 C486.400,60.148 484.851,62.780 483.507,65.916 C481.267,71.219 479.251,78.723 477.459,88.428 C476.861,91.939 474.435,94.886 470.179,97.276 C466.147,99.590 462.451,100.262 459.091,99.292 C455.283,98.246 453.603,95.446 454.051,90.892 C454.202,87.683 455.171,83.408 456.963,78.068 C458.755,72.731 460.136,68.699 461.107,65.972 C462.077,63.248 462.749,61.176 463.123,59.756 C463.123,59.756 466.931,45.980 466.931,45.980 C467.976,43.292 469.451,41.259 471.355,39.876 C473.259,38.496 475.088,37.636 476.843,37.300 C478.597,36.964 480.053,37.171 481.211,37.916 C482.368,38.664 482.760,39.820 482.387,41.388 C483.805,39.971 485.859,38.664 488.547,37.468 C491.235,36.275 493.363,35.452 494.931,35.004 C496.499,34.556 497.843,34.332 498.963,34.332 C501.427,34.483 502.136,35.827 501.091,38.364 C502.360,38.588 503.293,39.411 503.891,40.828 C504.488,42.248 504.563,43.816 504.115,45.532 C503.667,47.251 502.659,48.931 501.091,50.572 ZM457.188,47.996 C456.665,48.968 456.273,49.620 456.012,49.956 C455.750,50.292 455.209,50.796 454.388,51.468 C449.310,56.920 443.486,67.036 436.916,81.820 C435.273,85.480 433.780,88.764 432.436,91.676 C434.452,92.945 435.982,94.588 437.028,96.604 C438.073,98.620 438.073,100.822 437.028,103.212 C430.830,108.140 427.358,112.769 426.612,117.100 C426.238,119.788 425.772,121.692 425.212,122.812 C424.652,123.932 423.774,125.014 422.580,126.060 C418.548,129.046 413.806,128.300 408.356,123.820 C404.473,119.937 404.286,115.084 407.796,109.260 C408.692,107.692 409.550,106.049 410.372,104.332 C411.566,101.793 413.470,98.022 416.084,93.020 C409.662,96.753 403.764,96.678 398.388,92.796 C394.580,89.884 393.236,83.276 394.356,72.972 C395.102,66.104 395.494,61.139 395.532,58.076 C395.569,55.016 395.326,52.515 394.804,50.572 C394.281,48.632 394.300,47.008 394.860,45.700 C395.420,44.395 396.316,43.480 397.548,42.956 C398.780,42.435 400.236,42.267 401.916,42.452 C403.596,42.640 405.257,43.144 406.900,43.964 C410.857,45.756 413.620,48.296 415.188,51.580 C415.561,53.224 415.430,55.259 414.796,57.684 C414.161,60.112 413.433,62.612 412.612,65.188 C411.790,67.764 411.006,70.267 410.260,72.692 C409.513,75.120 409.214,77.155 409.364,78.796 C411.305,77.603 413.004,75.811 414.460,73.420 C415.916,71.032 417.260,68.475 418.492,65.748 C419.724,63.024 420.881,60.316 421.964,57.628 C423.046,54.940 424.092,52.812 425.100,51.244 C426.108,49.676 426.910,48.427 427.508,47.492 C428.105,46.560 428.702,45.720 429.300,44.972 C430.270,43.704 431.540,42.472 433.108,41.276 C433.556,40.904 434.918,40.960 437.196,41.444 C439.473,41.931 441.153,42.267 442.236,42.452 C443.318,42.640 444.046,42.584 444.420,42.284 C444.420,42.284 445.988,41.164 445.988,41.164 C448.078,40.120 450.542,40.156 453.380,41.276 C456.142,42.472 457.598,44.300 457.748,46.764 C457.673,46.840 457.636,46.988 457.636,47.212 C457.636,47.212 457.972,47.324 457.972,47.324 C457.972,47.324 457.188,47.996 457.188,47.996 ZM388.980,58.524 C385.769,71.368 383.660,80.028 382.652,84.508 C381.644,88.988 380.766,91.640 380.020,92.460 C379.273,93.281 378.508,93.860 377.724,94.196 C376.940,94.532 376.174,94.849 375.428,95.148 C374.681,95.446 374.084,96.193 373.636,97.388 C373.636,97.388 373.300,97.388 373.300,97.388 C372.702,98.732 371.396,99.777 369.380,100.524 C367.364,101.270 365.329,101.550 363.276,101.364 C361.222,101.177 359.505,100.430 358.124,99.124 C356.742,97.817 356.388,95.820 357.060,93.132 C357.806,88.876 359.038,84.304 360.756,79.412 C362.473,74.523 363.836,70.696 364.844,67.932 C365.852,65.171 366.692,62.595 367.364,60.204 C366.766,60.504 366.188,60.728 365.628,60.876 C365.068,61.027 364.377,61.307 363.556,61.716 C362.734,62.128 361.894,62.483 361.036,62.780 C360.177,63.080 359.337,63.379 358.516,63.676 C356.425,64.499 354.708,65.320 353.364,66.140 C353.364,66.140 352.356,67.932 352.356,67.932 C352.356,67.932 346.980,81.596 346.980,81.596 C346.233,83.688 345.561,85.852 344.964,88.092 C344.366,90.332 343.732,92.292 343.060,93.972 C342.388,95.652 341.361,96.977 339.980,97.948 C338.598,98.918 337.049,99.646 335.332,100.132 C333.614,100.617 331.841,100.822 330.012,100.748 C328.182,100.673 326.558,100.337 325.140,99.740 C321.931,98.246 320.811,95.782 321.780,92.348 C325.216,77.267 328.444,65.171 331.468,56.060 C334.492,46.952 336.993,39.784 338.972,34.556 C340.950,29.331 343.022,23.804 345.188,17.980 C345.412,15.816 346.308,13.875 347.876,12.156 C349.444,10.440 351.292,9.020 353.420,7.900 C355.548,6.780 357.769,5.979 360.084,5.492 C362.398,5.008 364.452,4.952 366.244,5.324 C368.036,5.699 369.361,6.520 370.220,7.788 C371.078,9.059 371.134,10.888 370.388,13.276 C367.700,20.147 365.796,25.000 364.676,27.836 C363.556,30.675 362.548,33.212 361.652,35.452 C361.652,35.452 358.516,42.844 358.516,42.844 C360.084,42.920 362.062,42.696 364.452,42.172 C368.782,41.203 371.918,40.867 373.860,41.164 C373.860,40.792 374.046,40.156 374.420,39.260 C376.510,30.152 378.862,21.788 381.476,14.172 C383.342,7.900 388.158,4.616 395.924,4.316 C398.985,4.316 401.300,5.064 402.868,6.556 C404.585,8.124 404.809,10.252 403.540,12.940 C396.670,32.204 391.817,47.400 388.980,58.524 ZM365.012,60.428 C365.086,60.428 365.460,60.316 366.132,60.092 C365.684,60.243 365.310,60.355 365.012,60.428 ZM285.381,89.884 C285.530,92.497 283.925,94.289 280.565,95.260 C277.653,96.156 274.741,96.118 271.829,95.148 C268.767,94.102 267.498,92.497 268.021,90.332 C267.423,91.452 266.826,92.256 266.229,92.740 C265.631,93.225 264.455,93.897 262.701,94.756 C260.946,95.614 258.463,96.324 255.253,96.884 C252.042,97.444 248.831,97.593 245.621,97.332 C242.410,97.070 239.479,96.286 236.829,94.980 C234.178,93.673 232.405,91.640 231.509,88.876 C229.793,83.500 230.017,76.668 232.181,68.380 C233.674,62.931 236.362,58.115 240.245,53.932 C244.725,49.155 249.802,45.196 255.477,42.060 C259.733,39.747 263.839,38.364 267.797,37.916 C269.141,37.768 270.317,37.804 271.325,38.028 C272.333,38.252 273.415,38.476 274.573,38.700 C275.730,38.924 276.831,39.260 277.877,39.708 C280.565,40.828 281.909,42.360 281.909,44.300 C281.909,44.300 282.357,44.412 282.357,44.412 C282.506,44.412 282.581,44.451 282.581,44.524 C284.522,43.779 286.127,44.339 287.397,46.204 C288.218,47.475 288.853,49.416 289.301,52.028 C289.450,55.612 289.077,60.579 288.181,66.924 C286.463,79.768 285.530,87.420 285.381,89.884 ZM249.989,73.980 C246.479,77.939 246.703,80.664 250.661,82.156 C254.095,83.052 256.597,82.492 258.165,80.476 C258.837,79.580 259.434,78.460 259.957,77.116 C260.479,75.772 261.114,74.392 261.861,72.972 C261.637,73.347 261.413,73.683 261.189,73.980 C261.711,72.936 262.141,71.628 262.477,70.060 C262.813,68.492 263.279,66.776 263.877,64.908 C257.829,67.372 253.199,70.396 249.989,73.980 ZM237.558,42.844 C236.662,43.891 235.504,44.451 234.086,44.524 C227.590,46.316 222.960,47.288 220.198,47.436 C220.198,47.436 219.526,48.220 219.526,48.220 C219.526,48.220 219.526,48.332 219.526,48.332 C218.779,50.124 217.976,52.384 217.118,55.108 C216.259,57.835 215.326,60.784 214.318,63.956 C213.310,67.131 212.283,70.416 211.238,73.812 C210.192,77.211 209.110,80.476 207.990,83.612 C204.406,94.140 201.792,99.852 200.150,100.748 C199.552,101.046 198.936,101.252 198.302,101.364 C197.667,101.476 197.312,101.569 197.238,101.644 C194.624,101.494 192.459,100.972 190.742,100.076 C189.024,99.180 187.867,98.321 187.270,97.500 C186.672,96.678 186.523,95.745 186.822,94.700 C188.240,81.708 191.078,67.484 195.334,52.028 C193.840,52.028 192.795,52.179 192.198,52.476 C191.078,53.075 189.734,53.411 188.166,53.484 C188.166,53.484 188.054,53.484 188.054,53.484 C186.859,53.411 185.776,52.851 184.806,51.804 C183.835,50.760 183.238,49.564 183.014,48.220 C182.842,47.187 182.941,46.130 183.299,45.052 C177.828,46.504 173.842,47.303 171.368,47.436 C171.368,47.436 170.696,48.220 170.696,48.220 C170.696,48.220 170.696,48.332 170.696,48.332 C169.948,50.124 169.145,52.384 168.288,55.108 C167.428,57.835 166.496,60.784 165.488,63.956 C164.480,67.131 163.452,70.416 162.408,73.812 C161.361,77.211 160.280,80.476 159.160,83.612 C155.576,94.140 152.961,99.852 151.320,100.748 C150.721,101.046 150.105,101.252 149.472,101.364 C148.836,101.476 148.481,101.569 148.408,101.644 C145.793,101.494 143.628,100.972 141.912,100.076 C140.193,99.180 139.036,98.321 138.440,97.500 C137.841,96.678 137.692,95.745 137.992,94.700 C139.409,81.708 142.248,67.484 146.504,52.028 C145.009,52.028 143.964,52.179 143.368,52.476 C142.248,53.075 140.904,53.411 139.336,53.484 C139.336,53.484 139.224,53.484 139.224,53.484 C138.028,53.411 136.945,52.851 135.976,51.804 C135.831,51.649 135.712,51.483 135.584,51.321 C132.892,58.466 129.626,68.480 125.785,81.372 C124.515,85.480 123.321,88.915 122.201,91.676 C120.334,93.990 117.982,95.558 115.145,96.380 C112.307,97.201 109.638,97.444 107.137,97.108 C104.635,96.772 102.638,95.913 101.145,94.532 C99.651,93.150 99.315,91.416 100.137,89.324 C98.046,91.043 95.881,92.609 93.641,94.028 C91.401,95.446 88.694,96.380 85.521,96.828 C82.347,97.276 79.305,97.145 76.393,96.436 C73.481,95.726 70.998,94.364 68.945,92.348 C66.891,90.332 65.790,87.644 65.641,84.284 C65.193,72.488 69.859,58.787 79.641,43.180 C81.731,41.164 84.065,39.988 86.641,39.652 C89.217,39.316 91.494,39.596 93.473,40.492 C95.451,41.388 96.907,42.827 97.841,44.804 C98.774,46.784 98.643,49.043 97.449,51.580 C94.910,55.315 92.894,59.347 91.401,63.676 C89.907,68.008 88.526,72.376 87.257,76.780 C94.126,72.451 99.875,65.992 104.505,57.404 C105.849,54.867 107.305,52.291 108.873,49.676 C108.873,49.676 110.553,46.540 110.553,46.540 C110.553,46.540 113.913,41.164 113.913,41.164 C114.361,39.747 115.145,38.832 116.265,38.420 C117.385,38.011 118.598,37.804 119.905,37.804 C121.211,37.804 122.537,37.824 123.881,37.860 C125.225,37.899 126.457,37.544 127.577,36.796 C128.697,36.051 130.022,35.771 131.553,35.956 C133.083,36.144 134.465,36.648 135.697,37.468 C136.929,38.291 137.862,39.280 138.497,40.436 C138.567,40.564 138.603,40.691 138.659,40.818 C138.736,40.785 138.808,40.749 138.888,40.716 C141.276,40.044 143.032,39.484 144.152,39.036 C146.316,38.140 148.128,37.507 149.584,37.132 C151.040,36.760 151.860,36.516 152.048,36.404 C152.233,36.292 152.364,36.200 152.440,36.124 C152.664,35.976 153.224,35.900 154.120,35.900 C154.568,33.736 155.016,31.532 155.464,29.292 C155.912,27.052 156.472,24.776 157.144,22.460 C158.636,17.084 160.689,12.456 163.304,8.572 C163.304,8.572 163.416,8.124 163.416,8.124 C163.416,8.124 164.424,7.116 164.424,7.116 C165.244,5.176 166.140,4.019 167.112,3.644 C167.633,3.496 168.305,3.308 169.128,3.084 C169.948,2.860 171.032,2.300 172.376,1.404 C172.897,0.360 173.980,-0.108 175.624,0.004 C177.265,0.116 178.889,0.640 180.496,1.572 C182.100,2.507 183.408,3.795 184.416,5.436 C185.424,7.080 185.665,8.779 185.144,10.532 C184.620,12.288 184.192,13.595 183.856,14.452 C183.520,15.312 183.184,16.115 182.848,16.860 C182.512,17.608 182.100,18.448 181.616,19.380 C181.129,20.315 180.513,21.564 179.768,23.132 C179.768,23.132 176.072,30.860 176.072,30.860 C175.697,31.832 175.380,32.392 175.120,32.540 C174.857,32.691 174.616,32.952 174.392,33.324 C175.064,33.176 175.624,33.064 176.072,32.988 C176.520,32.915 176.968,32.840 177.416,32.764 C178.460,32.616 179.656,32.467 181.000,32.316 C181.820,32.467 182.529,32.540 183.128,32.540 C183.128,32.540 184.696,32.540 184.696,32.540 C185.592,32.540 186.673,32.784 187.944,33.268 C189.212,33.755 190.033,34.595 190.408,35.788 C190.780,36.984 190.817,38.196 190.520,39.428 C190.478,39.600 190.417,39.766 190.363,39.935 C191.442,39.599 192.332,39.297 192.982,39.036 C195.147,38.140 196.958,37.507 198.414,37.132 C199.870,36.760 200.691,36.516 200.878,36.404 C201.064,36.292 201.195,36.200 201.270,36.124 C201.494,35.976 202.054,35.900 202.951,35.900 C203.398,33.736 203.846,31.532 204.294,29.292 C204.742,27.052 205.302,24.776 205.974,22.460 C207.467,17.084 209.520,12.456 212.134,8.572 C212.134,8.572 212.246,8.124 212.246,8.124 C212.246,8.124 213.254,7.116 213.254,7.116 C214.075,5.176 214.971,4.019 215.942,3.644 C216.464,3.496 217.136,3.308 217.958,3.084 C218.779,2.860 219.862,2.300 221.206,1.404 C221.728,0.360 222.811,-0.108 224.454,0.004 C226.096,0.116 227.720,0.640 229.326,1.572 C230.931,2.507 232.238,3.795 233.246,5.436 C234.254,7.080 234.496,8.779 233.974,10.532 C233.451,12.288 233.022,13.595 232.686,14.452 C232.350,15.312 232.014,16.115 231.678,16.860 C231.342,17.608 230.931,18.448 230.446,19.380 C229.960,20.315 229.344,21.564 228.598,23.132 C228.598,23.132 224.902,30.860 224.902,30.860 C224.528,31.832 224.211,32.392 223.950,32.540 C223.688,32.691 223.446,32.952 223.222,33.324 C223.894,33.176 224.454,33.064 224.902,32.988 C225.350,32.915 225.798,32.840 226.246,32.764 C227.291,32.616 228.486,32.467 229.830,32.316 C230.651,32.467 231.360,32.540 231.958,32.540 C231.958,32.540 233.526,32.540 233.526,32.540 C234.422,32.540 235.504,32.784 236.774,33.268 C238.043,33.755 238.864,34.595 239.238,35.788 C239.611,36.984 239.648,38.196 239.350,39.428 C239.051,40.660 238.454,41.800 237.558,42.844 ZM71.466,32.764 C69.748,38.440 67.919,44.132 65.978,49.844 C64.036,55.556 61.871,61.139 59.482,66.588 C57.092,72.040 54.330,77.043 51.194,81.596 C44.250,91.752 36.036,98.470 26.554,101.756 C25.508,102.204 24.631,102.465 23.922,102.540 C23.212,102.614 22.186,102.745 20.842,102.932 C19.498,103.118 17.799,103.156 15.746,103.044 C13.692,102.932 11.695,102.577 9.754,101.980 C5.274,100.710 2.511,98.470 1.466,95.260 C0.273,90.780 -0.195,87.515 0.066,85.460 C0.329,83.408 0.758,81.747 1.354,80.476 C1.953,79.208 2.698,77.864 3.594,76.444 C3.594,76.444 3.706,76.444 3.706,76.444 C4.378,75.176 5.442,74.092 6.898,73.196 C8.354,72.300 9.884,71.723 11.490,71.460 C13.095,71.200 14.588,71.331 15.970,71.852 C17.351,72.376 18.266,73.384 18.714,74.876 C18.788,75.699 18.826,76.744 18.826,78.012 C18.826,79.283 18.788,80.291 18.714,81.036 C18.714,81.036 18.602,83.724 18.602,83.724 C18.602,84.172 18.676,85.068 18.826,86.412 C19.498,87.235 20.207,87.420 20.954,86.972 C21.551,86.600 22.895,85.555 24.986,83.836 C28.420,78.684 31.258,73.608 33.498,68.604 C38.650,56.883 42.308,46.876 44.474,38.588 C45.146,36.124 45.799,33.699 46.434,31.308 C47.068,28.920 47.703,26.475 48.338,23.972 C48.972,21.472 49.700,18.876 50.522,16.188 C50.522,16.188 50.522,15.740 50.522,15.740 C51.791,11.336 55.039,7.900 60.266,5.436 C65.268,2.972 69.562,2.600 73.146,4.316 C74.863,5.139 76.095,6.539 76.842,8.516 C77.588,10.496 77.514,13.164 76.618,16.524 C74.900,21.676 73.183,27.091 71.466,32.764 Z" id="path-1" class="cls-2" fill-rule="evenodd"/>
</svg>
